<svg width="50" height="50" viewBox="0 0 50 50" fill="none" xmlns="http://www.w3.org/2000/svg">
<path d="M25 50C38.8071 50 50 38.8071 50 25C50 11.1929 38.8071 0 25 0C11.1929 0 0 11.1929 0 25C0 38.8071 11.1929 50 25 50Z" fill="#4D76A1"/>
<path fill-rule="evenodd" clip-rule="evenodd" d="M24.0551 35.9643H26.0173C26.0173 35.9643 26.61 35.8992 26.9126 35.573C27.1911 35.2735 27.1822 34.7111 27.1822 34.7111C27.1822 34.7111 27.1439 32.0782 28.3658 31.6905C29.5704 31.3086 31.1173 34.2352 32.7568 35.3604C33.9966 36.2121 34.9387 36.0253 34.9387 36.0253L39.3226 35.9643C39.3226 35.9643 41.6159 35.823 40.5285 34.0199C40.4394 33.8724 39.8952 32.6861 37.269 30.2484C34.5202 27.6971 34.8884 28.1097 38.1995 23.6965C40.2161 21.0088 41.0223 19.3679 40.7705 18.6651C40.5303 17.9957 39.0472 18.1727 39.0472 18.1727L34.1111 18.2034C34.1111 18.2034 33.7453 18.1535 33.4739 18.3157C33.2087 18.4748 33.038 18.8456 33.038 18.8456C33.038 18.8456 32.2568 20.9254 31.2149 22.6942C29.0169 26.4265 28.1381 26.6235 27.7789 26.3918C26.9433 25.8516 27.1519 24.2219 27.1519 23.0641C27.1519 19.4472 27.7005 17.9391 26.0837 17.5487C25.5471 17.4191 25.1523 17.3335 23.7801 17.3197C22.0189 17.3014 20.5282 17.325 19.6842 17.7386C19.1226 18.0136 18.6895 18.6263 18.9533 18.6615C19.2795 18.7052 20.0184 18.8607 20.4101 19.3942C20.9159 20.0823 20.8981 21.6278 20.8981 21.6278C20.8981 21.6278 21.1887 25.8855 20.2194 26.4145C19.554 26.7772 18.6413 26.0366 16.6818 22.6505C15.6778 20.9161 14.9197 18.9989 14.9197 18.9989C14.9197 18.9989 14.7736 18.6406 14.5129 18.449C14.1964 18.2168 13.7544 18.1428 13.7544 18.1428L9.06391 18.1735C9.06391 18.1735 8.35978 18.1932 8.1013 18.4993C7.87135 18.7716 8.08303 19.3349 8.08303 19.3349C8.08303 19.3349 11.7552 27.9261 15.9131 32.2556C19.7256 36.225 24.0551 35.9643 24.0551 35.9643Z" fill="white"/>
</svg>
