<?xml version="1.0" encoding="utf-8"?>
<!-- Generator: Adobe Illustrator 25.2.1, SVG Export Plug-In . SVG Version: 6.00 Build 0)  -->
<svg version="1.1" id="Capa_1" xmlns="http://www.w3.org/2000/svg" xmlns:xlink="http://www.w3.org/1999/xlink" x="0px" y="0px"
	 viewBox="0 0 455.7 455.7" style="enable-background:new 0 0 455.7 455.7;" xml:space="preserve">
<style type="text/css">
	.st0{fill:#DC472E;}
	.st1{fill:#FFFFFF;}
</style>
<g>
	<path class="st0" d="M43.7,0H412c24.1,0,43.7,19.6,43.7,43.7V412c0,24.1-19.6,43.7-43.7,43.7H43.7C19.6,455.7,0,436.2,0,412V43.7
		C0,19.6,19.6,0,43.7,0z"/>
	<g>
		<path class="st1" d="M263.3,291.7c0-1.7-0.5-3.5-1.1-5.1c-0.8-2.1-2.6-3.1-4.9-3.4c-2.6-0.3-4.8,0.8-6.7,2.5
			c-0.3,0.3-0.6,0.6-0.7,0.9c-0.3,0.4-0.4,0.9-0.4,1.4l0,53.3v1.3c0,0,0.5,0.6,0.5,0.7c1.6,1.7,3.4,3,5.7,3.5
			c3.8,0.8,6.5-0.8,7.3-4.4c0.2-0.9,0.3-1.8,0.3-2.7C263.3,323.9,263.3,307.8,263.3,291.7z M263.3,291.7c0-1.7-0.5-3.5-1.1-5.1
			c-0.8-2.1-2.6-3.1-4.9-3.4c-2.6-0.3-4.8,0.8-6.7,2.5c-0.3,0.3-0.6,0.6-0.7,0.9c-0.3,0.4-0.4,0.9-0.4,1.4l0,53.3v1.3
			c0,0,0.5,0.6,0.5,0.7c1.6,1.7,3.4,3,5.7,3.5c3.8,0.8,6.5-0.8,7.3-4.4c0.2-0.9,0.3-1.8,0.3-2.7
			C263.3,323.9,263.3,307.8,263.3,291.7z M323.7,210.3c-63.9-1.4-127.8-1.4-191.6,0c-22.2,0.5-39.9,18.6-39.9,40.8v99.8
			c0,22.2,17.7,40.3,39.9,40.8c63.9,1.4,127.8,1.4,191.6,0c22.2-0.5,39.9-18.6,39.9-40.8v-99.8C363.6,228.9,345.9,210.8,323.7,210.3
			z M147.9,360h-12.7c-1.6,0-2.9-1.3-2.9-2.9v-98.4c0-1.6-1.3-2.9-2.9-2.9h-13.4c-1.6,0-2.9-1.3-2.9-2.9v-11.7
			c0-1.6,1.3-2.9,2.9-2.9h50.9c1.6,0,2.9,1.3,2.9,2.9v11.7c0,1.6-1.3,2.9-2.9,2.9h-13.4c-1.6,0-2.9,1.3-2.9,2.9v98.5
			C150.8,358.7,149.5,360,147.9,360z M216.7,316.7v40.4c0,1.6-1.3,2.9-2.9,2.9h-10.6c-1.6,0-2.9-1.3-2.9-2.9v-7
			c-0.6,0.6-0.9,1-1.2,1.3c-3.5,4-7.5,7.3-12.6,9c-2.5,0.9-5,1.1-7.6,0.7c-3.6-0.6-5.9-2.6-7.4-5.9c-1.3-3-1.7-6.2-1.7-9.4
			c0-10.4,0-60.1,0-72.6c0-1.6,1.3-2.9,2.9-2.9h10.6c1.6,0,2.9,1.3,2.9,2.8c0,10.3,0.1,46.1,0.1,65c0,1.2,0,2.4,0.2,3.6
			c0.6,3,2.9,4.2,5.7,3.2c3.3-1.2,5.8-3.5,7.9-6.2c0.3-0.4,0.3-1.1,0.3-1.6v-64c0-1.6,1.3-2.9,2.8-2.9l10.6,0c1.6,0,2.9,1.3,2.9,2.9
			C216.7,281.1,216.7,304.5,216.7,316.7z M278.8,351.3c-2.2,6.6-7,9.9-13.9,9.8c-5.6,0-10.2-2.3-13.9-6.4c-0.4-0.5-1.6-1.7-1.6-1.7
			v4c0,1.6-1.3,2.9-2.9,2.9h-10.6c-1.6,0-2.9-1.3-2.9-2.9V241.3c0-1.6,1.3-2.9,2.9-2.9h10.6c1.6,0,2.9,1.3,2.9,2.9v37.2
			c0,0,0.9-1.8,1.8-2.8c2.5-2.8,5.6-5,9.4-6c6.3-1.6,13.5,0.4,16.9,7.7c2,4.3,2.6,9,2.6,13.6c0,17,0,34,0,51
			C280.1,345.1,279.8,348.3,278.8,351.3z M339.1,347.9c-2.8,8.3-8.7,12.9-17.3,14.1c-5.3,0.8-10.6,0.7-15.6-1.6
			c-6.8-3.1-10.7-8.6-12.4-15.7c-0.8-3.3-1.1-6.8-1.2-10.1c-0.1-13.3-0.1-26.6,0-39.9c0-7,1.7-13.4,6.4-18.7
			c5.4-6.1,12.4-8.4,20.4-7.9c2.4,0.1,4.8,0.5,7.1,1.3c7.7,2.5,11.9,8.3,13.5,16c0.6,3,0.9,6,0.9,9.1c0.1,5.2,0,15.1,0,19.9
			c0,1.6-1.3,2.8-2.9,2.8h-25.6c-1.6,0-2.9,1.3-2.9,2.9V342c0,0.8,0.3,1.5,0.9,2.1c6.3,6,13.7,1.7,13.7-4.4v-8.7
			c0-1.6,1.3-2.9,2.9-2.9h11.1c1.6,0,2.9,1.3,2.9,2.9C340.9,335.3,340.6,343.5,339.1,347.9z M324.2,290.7c0-6.1-7.4-10.4-13.7-4.4
			c-0.6,0.5-0.9,1.3-0.9,2.1v12.1c0,1.6,1.3,2.9,2.9,2.9h8.9c1.6,0,2.9-1.3,2.9-2.9V290.7z M262.1,286.7c-0.8-2.1-2.6-3.1-4.9-3.4
			c-2.6-0.3-4.8,0.8-6.7,2.5c-0.3,0.3-0.6,0.6-0.7,0.9c-0.3,0.4-0.4,0.9-0.4,1.4l0,53.3v1.3c0,0,0.5,0.6,0.5,0.7
			c1.6,1.7,3.4,3,5.7,3.5c3.8,0.8,6.5-0.8,7.3-4.4c0.2-0.9,0.3-1.8,0.3-2.7c0-16.1,0-32.1,0-48.2C263.2,290,262.7,288.3,262.1,286.7
			z"/>
		<path class="st1" d="M303.9,97.8l0,84.5c0,1.6-1.3,2.9-2.9,2.9h-11c-1.6,0-2.9-1.3-2.9-2.9v0c0-2.5-2.9-3.8-4.8-2.1
			c-0.1,0.1-0.2,0.2-0.4,0.3c-3.1,2.7-6.6,4.7-10.6,5.5c-6.3,1.2-11.6-0.8-13.6-7.2c-0.7-2.2-1.1-4.5-1.1-6.7V97.8
			c0-1.6,1.3-2.9,2.9-2.9h10.9c1.6,0,2.9,1.3,2.9,2.9v66c0,0.9,0.1,1.8,0.2,2.7c0.5,2.8,2.6,4.2,5.3,3.2c3.3-1.2,5.9-3.5,8-6.2
			c0.3-0.4,0.3-1.1,0.3-1.7V97.8c0-1.6,1.3-2.9,2.9-2.9h11C302.6,95,303.9,96.3,303.9,97.8z"/>
		<path class="st1" d="M165.6,110.7c-3.1-12.9-8.9-37.9-10.7-45.4c-0.3-1.3-1.5-2.2-2.8-2.2h-12.9c-1.9,0-3.3,1.8-2.7,3.7
			c3.5,11.7,14.6,48.4,20.1,66.4c0.2,0.8,0.3,1.6,0.3,2.4l0,46.7c0,1.6,1.3,2.9,2.9,2.9h11.8c1.6,0,2.9-1.3,2.9-2.9l0-46.7
			c0-0.8,0.1-1.7,0.3-2.4c5.5-18,16.5-54.7,20.1-66.4c0.6-1.8-0.8-3.7-2.7-3.7h-12.9c-1.3,0-2.5,0.9-2.8,2.2
			C174.5,72.8,168.6,97.8,165.6,110.7L165.6,110.7z"/>
		<path class="st1" d="M218.8,92.7L218.8,92.7c-13.2,0-23.9,10.7-23.9,23.9v46.9c0,13.2,10.7,23.9,23.9,23.9l0,0
			c13.2,0,23.9-10.7,23.9-23.9v-46.9C242.7,103.5,232,92.7,218.8,92.7z M225.7,164.5c0,5.7-7,9.9-12.9,4.2c-0.6-0.5-0.9-1.3-0.9-2.1
			v-53c0-0.8,0.3-1.5,0.9-2.1c5.9-5.7,12.9-1.5,12.9,4.2V164.5z"/>
	</g>
</g>
</svg>
